<?xml version="1.0" encoding="utf-8"?>
<!-- Generator: Adobe Illustrator 23.0.4, SVG Export Plug-In . SVG Version: 6.00 Build 0)  -->
<svg version="1.1" id="レイヤー_1" xmlns="http://www.w3.org/2000/svg" xmlns:xlink="http://www.w3.org/1999/xlink" x="0px"
	 y="0px" width="800px" height="600px" viewBox="0 0 800 600" style="enable-background:new 0 0 800 600;" xml:space="preserve">
<rect width="800" height="2"/>
<rect y="6" width="800" height="2"/>
<rect y="12" width="800" height="2"/>
<rect y="18" width="800" height="2"/>
<rect y="24" width="800" height="2"/>
<rect y="30" width="800" height="2"/>
<rect y="36" width="800" height="2"/>
<rect y="42" width="800" height="2"/>
<rect y="48" width="800" height="2"/>
<rect y="54" width="800" height="2"/>
<rect y="60" width="800" height="2"/>
<rect y="66" width="800" height="2"/>
<rect y="72" width="800" height="2"/>
<rect y="78" width="800" height="2"/>
<rect y="84" width="800" height="2"/>
<rect y="90" width="800" height="2"/>
<rect y="96" width="800" height="2"/>
<rect y="102" width="800" height="2"/>
<rect y="108" width="800" height="2"/>
<rect y="114" width="800" height="2"/>
<rect y="120" width="800" height="2"/>
<rect y="126" width="800" height="2"/>
<rect y="132" width="800" height="2"/>
<rect y="138" width="800" height="2"/>
<rect y="144" width="800" height="2"/>
<rect y="150" width="800" height="2"/>
<rect y="156" width="800" height="2"/>
<rect y="162" width="800" height="2"/>
<rect y="168" width="800" height="2"/>
<rect y="174" width="800" height="2"/>
<rect y="180" width="800" height="2"/>
<rect y="186" width="800" height="2"/>
<rect y="192" width="800" height="2"/>
<rect y="198" width="800" height="2"/>
<rect y="204" width="800" height="2"/>
<rect y="210" width="800" height="2"/>
<rect y="216" width="800" height="2"/>
<rect y="222" width="800" height="2"/>
<rect y="228" width="800" height="2"/>
<rect y="234" width="800" height="2"/>
<rect y="240" width="800" height="2"/>
<rect y="246" width="800" height="2"/>
<rect y="252" width="800" height="2"/>
<rect y="258" width="800" height="2"/>
<rect y="264" width="800" height="2"/>
<rect y="270" width="800" height="2"/>
<rect y="276" width="800" height="2"/>
<rect y="282" width="800" height="2"/>
<rect y="288" width="800" height="2"/>
<rect y="294" width="800" height="2"/>
<rect y="300" width="800" height="2"/>
<rect y="306" width="800" height="2"/>
<rect y="312" width="800" height="2"/>
<rect y="318" width="800" height="2"/>
<rect y="324" width="800" height="2"/>
<rect y="330" width="800" height="2"/>
<rect y="336" width="800" height="2"/>
<rect y="342" width="800" height="2"/>
<rect y="348" width="800" height="2"/>
<rect y="354" width="800" height="2"/>
<rect y="360" width="800" height="2"/>
<rect y="366" width="800" height="2"/>
<rect y="372" width="800" height="2"/>
<rect y="378" width="800" height="2"/>
<rect y="384" width="800" height="2"/>
<rect y="390" width="800" height="2"/>
<rect y="396" width="800" height="2"/>
<rect y="402" width="800" height="2"/>
<rect y="408" width="800" height="2"/>
<rect y="414" width="800" height="2"/>
<rect y="420" width="800" height="2"/>
<rect y="426" width="800" height="2"/>
<rect y="432" width="800" height="2"/>
<rect y="438" width="800" height="2"/>
<rect y="444" width="800" height="2"/>
<rect y="450" width="800" height="2"/>
<rect y="456" width="800" height="2"/>
<rect y="462" width="800" height="2"/>
<rect y="468" width="800" height="2"/>
<rect y="474" width="800" height="2"/>
<rect y="480" width="800" height="2"/>
<rect y="486" width="800" height="2"/>
<rect y="492" width="800" height="2"/>
<rect y="498" width="800" height="2"/>
<rect y="504" width="800" height="2"/>
<rect y="510" width="800" height="2"/>
<rect y="516" width="800" height="2"/>
<rect y="522" width="800" height="2"/>
<rect y="528" width="800" height="2"/>
<rect y="534" width="800" height="2"/>
<rect y="540" width="800" height="2"/>
<rect y="546" width="800" height="2"/>
<rect y="552" width="800" height="2"/>
<rect y="558" width="800" height="2"/>
<rect y="564" width="800" height="2"/>
<rect y="570" width="800" height="2"/>
<rect y="576" width="800" height="2"/>
<rect y="582" width="800" height="2"/>
<rect y="588" width="800" height="2"/>
<rect y="594" width="800" height="2"/>
</svg>
