<?xml version="1.0" encoding="utf-8"?>
<!-- Generator: Adobe Illustrator 23.0.4, SVG Export Plug-In . SVG Version: 6.00 Build 0)  -->
<svg version="1.1" id="レイヤー_1" xmlns="http://www.w3.org/2000/svg" xmlns:xlink="http://www.w3.org/1999/xlink" x="0px"
	 y="0px" width="800px" height="600px" viewBox="0 0 800 600" style="enable-background:new 0 0 800 600;" xml:space="preserve">
<rect width="2" height="600"/>
<rect x="6" width="2" height="600"/>
<rect x="12" width="2" height="600"/>
<rect x="18" width="2" height="600"/>
<rect x="24" width="2" height="600"/>
<rect x="30" width="2" height="600"/>
<rect x="36" width="2" height="600"/>
<rect x="42" width="2" height="600"/>
<rect x="48" width="2" height="600"/>
<rect x="54" width="2" height="600"/>
<rect x="60" width="2" height="600"/>
<rect x="66" width="2" height="600"/>
<rect x="72" width="2" height="600"/>
<rect x="78" width="2" height="600"/>
<rect x="84" width="2" height="600"/>
<rect x="90" width="2" height="600"/>
<rect x="96" width="2" height="600"/>
<rect x="102" width="2" height="600"/>
<rect x="108" width="2" height="600"/>
<rect x="114" width="2" height="600"/>
<rect x="120" width="2" height="600"/>
<rect x="126" width="2" height="600"/>
<rect x="132" width="2" height="600"/>
<rect x="138" width="2" height="600"/>
<rect x="144" width="2" height="600"/>
<rect x="150" width="2" height="600"/>
<rect x="156" width="2" height="600"/>
<rect x="162" width="2" height="600"/>
<rect x="168" width="2" height="600"/>
<rect x="174" width="2" height="600"/>
<rect x="180" width="2" height="600"/>
<rect x="186" width="2" height="600"/>
<rect x="192" width="2" height="600"/>
<rect x="198" width="2" height="600"/>
<rect x="204" width="2" height="600"/>
<rect x="210" width="2" height="600"/>
<rect x="216" width="2" height="600"/>
<rect x="222" width="2" height="600"/>
<rect x="228" width="2" height="600"/>
<rect x="234" width="2" height="600"/>
<rect x="240" width="2" height="600"/>
<rect x="246" width="2" height="600"/>
<rect x="252" width="2" height="600"/>
<rect x="258" width="2" height="600"/>
<rect x="264" width="2" height="600"/>
<rect x="270" width="2" height="600"/>
<rect x="276" width="2" height="600"/>
<rect x="282" width="2" height="600"/>
<rect x="288" width="2" height="600"/>
<rect x="294" width="2" height="600"/>
<rect x="300" width="2" height="600"/>
<rect x="306" width="2" height="600"/>
<rect x="312" width="2" height="600"/>
<rect x="318" width="2" height="600"/>
<rect x="324" width="2" height="600"/>
<rect x="330" width="2" height="600"/>
<rect x="336" width="2" height="600"/>
<rect x="342" width="2" height="600"/>
<rect x="348" width="2" height="600"/>
<rect x="354" width="2" height="600"/>
<rect x="360" width="2" height="600"/>
<rect x="366" width="2" height="600"/>
<rect x="372" width="2" height="600"/>
<rect x="378" width="2" height="600"/>
<rect x="384" width="2" height="600"/>
<rect x="390" width="2" height="600"/>
<rect x="396" width="2" height="600"/>
<rect x="402" width="2" height="600"/>
<rect x="408" width="2" height="600"/>
<rect x="414" width="2" height="600"/>
<rect x="420" width="2" height="600"/>
<rect x="426" width="2" height="600"/>
<rect x="432" width="2" height="600"/>
<rect x="438" width="2" height="600"/>
<rect x="444" width="2" height="600"/>
<rect x="450" width="2" height="600"/>
<rect x="456" width="2" height="600"/>
<rect x="462" width="2" height="600"/>
<rect x="468" width="2" height="600"/>
<rect x="474" width="2" height="600"/>
<rect x="480" width="2" height="600"/>
<rect x="486" width="2" height="600"/>
<rect x="492" width="2" height="600"/>
<rect x="498" width="2" height="600"/>
<rect x="504" width="2" height="600"/>
<rect x="510" width="2" height="600"/>
<rect x="516" width="2" height="600"/>
<rect x="522" width="2" height="600"/>
<rect x="528" width="2" height="600"/>
<rect x="534" width="2" height="600"/>
<rect x="540" width="2" height="600"/>
<rect x="546" width="2" height="600"/>
<rect x="552" width="2" height="600"/>
<rect x="558" width="2" height="600"/>
<rect x="564" width="2" height="600"/>
<rect x="570" width="2" height="600"/>
<rect x="576" width="2" height="600"/>
<rect x="582" width="2" height="600"/>
<rect x="588" width="2" height="600"/>
<rect x="594" width="2" height="600"/>
<rect x="600" width="2" height="600"/>
<rect x="606" width="2" height="600"/>
<rect x="612" width="2" height="600"/>
<rect x="618" width="2" height="600"/>
<rect x="624" width="2" height="600"/>
<rect x="630" width="2" height="600"/>
<rect x="636" width="2" height="600"/>
<rect x="642" width="2" height="600"/>
<rect x="648" width="2" height="600"/>
<rect x="654" width="2" height="600"/>
<rect x="660" width="2" height="600"/>
<rect x="666" width="2" height="600"/>
<rect x="672" width="2" height="600"/>
<rect x="678" width="2" height="600"/>
<rect x="684" width="2" height="600"/>
<rect x="690" width="2" height="600"/>
<rect x="696" width="2" height="600"/>
<rect x="702" width="2" height="600"/>
<rect x="708" width="2" height="600"/>
<rect x="714" width="2" height="600"/>
<rect x="720" width="2" height="600"/>
<rect x="726" width="2" height="600"/>
<rect x="732" width="2" height="600"/>
<rect x="738" width="2" height="600"/>
<rect x="744" width="2" height="600"/>
<rect x="750" width="2" height="600"/>
<rect x="756" width="2" height="600"/>
<rect x="762" width="2" height="600"/>
<rect x="768" width="2" height="600"/>
<rect x="774" width="2" height="600"/>
<rect x="780" width="2" height="600"/>
<rect x="786" width="2" height="600"/>
<rect x="792" width="2" height="600"/>
<rect x="798" width="2" height="600"/>
</svg>
