<?xml version="1.0" encoding="utf-8"?>
<!-- Generator: Adobe Illustrator 23.0.4, SVG Export Plug-In . SVG Version: 6.00 Build 0)  -->
<svg version="1.1" id="レイヤー_1" xmlns="http://www.w3.org/2000/svg" xmlns:xlink="http://www.w3.org/1999/xlink" x="0px"
	 y="0px" width="500px" height="500px" viewBox="0 0 500 500" style="enable-background:new 0 0 500 500;" xml:space="preserve">
<style type="text/css">
	.st0{fill:none;stroke:#000000;stroke-width:2;}
</style>
<desc>Created with Snap</desc>
<path class="st0" d="M10,50c0,0,60-90,120,0 M130,50c0,0,60,90,120,0 M250,50c0,0,60-90,120,0 M370,50c0,0,60,90,120,0"/>
<desc>Created with Snap</desc>
<path class="st0" d="M10,56c0,0,60-90,120,0 M130,56c0,0,60,90,120,0 M250,56c0,0,60-90,120,0 M370,56c0,0,60,90,120,0"/>
<desc>Created with Snap</desc>
<path class="st0" d="M10,62c0,0,60-90,120,0 M130,62c0,0,60,90,120,0 M250,62c0,0,60-90,120,0 M370,62c0,0,60,90,120,0"/>
<desc>Created with Snap</desc>
<path class="st0" d="M10,68c0,0,60-90,120,0 M130,68c0,0,60,90,120,0 M250,68c0,0,60-90,120,0 M370,68c0,0,60,90,120,0"/>
<desc>Created with Snap</desc>
<path class="st0" d="M10,74c0,0,60-90,120,0 M130,74c0,0,60,90,120,0 M250,74c0,0,60-90,120,0 M370,74c0,0,60,90,120,0"/>
<desc>Created with Snap</desc>
<path class="st0" d="M10,80c0,0,60-90,120,0 M130,80c0,0,60,90,120,0 M250,80c0,0,60-90,120,0 M370,80c0,0,60,90,120,0"/>
<desc>Created with Snap</desc>
<path class="st0" d="M10,86c0,0,60-90,120,0 M130,86c0,0,60,90,120,0 M250,86c0,0,60-90,120,0 M370,86c0,0,60,90,120,0"/>
<desc>Created with Snap</desc>
<path class="st0" d="M10,92c0,0,60-90,120,0 M130,92c0,0,60,90,120,0 M250,92c0,0,60-90,120,0 M370,92c0,0,60,90,120,0"/>
<desc>Created with Snap</desc>
<path class="st0" d="M10,98c0,0,60-90,120,0 M130,98c0,0,60,90,120,0 M250,98c0,0,60-90,120,0 M370,98c0,0,60,90,120,0"/>
<desc>Created with Snap</desc>
<path class="st0" d="M10,104c0,0,60-90,120,0 M130,104c0,0,60,90,120,0 M250,104c0,0,60-90,120,0 M370,104c0,0,60,90,120,0"/>
<desc>Created with Snap</desc>
<path class="st0" d="M10,110c0,0,60-90,120,0 M130,110c0,0,60,90,120,0 M250,110c0,0,60-90,120,0 M370,110c0,0,60,90,120,0"/>
<desc>Created with Snap</desc>
<path class="st0" d="M10,116c0,0,60-90,120,0 M130,116c0,0,60,90,120,0 M250,116c0,0,60-90,120,0 M370,116c0,0,60,90,120,0"/>
<desc>Created with Snap</desc>
<path class="st0" d="M10,122c0,0,60-90,120,0 M130,122c0,0,60,90,120,0 M250,122c0,0,60-90,120,0 M370,122c0,0,60,90,120,0"/>
<desc>Created with Snap</desc>
<path class="st0" d="M10,128c0,0,60-90,120,0 M130,128c0,0,60,90,120,0 M250,128c0,0,60-90,120,0 M370,128c0,0,60,90,120,0"/>
<desc>Created with Snap</desc>
<path class="st0" d="M10,134c0,0,60-90,120,0 M130,134c0,0,60,90,120,0 M250,134c0,0,60-90,120,0 M370,134c0,0,60,90,120,0"/>
<desc>Created with Snap</desc>
<path class="st0" d="M10,140c0,0,60-90,120,0 M130,140c0,0,60,90,120,0 M250,140c0,0,60-90,120,0 M370,140c0,0,60,90,120,0"/>
<desc>Created with Snap</desc>
<path class="st0" d="M10,146c0,0,60-90,120,0 M130,146c0,0,60,90,120,0 M250,146c0,0,60-90,120,0 M370,146c0,0,60,90,120,0"/>
<desc>Created with Snap</desc>
<path class="st0" d="M10,152c0,0,60-90,120,0 M130,152c0,0,60,90,120,0 M250,152c0,0,60-90,120,0 M370,152c0,0,60,90,120,0"/>
<desc>Created with Snap</desc>
<path class="st0" d="M10,158c0,0,60-90,120,0 M130,158c0,0,60,90,120,0 M250,158c0,0,60-90,120,0 M370,158c0,0,60,90,120,0"/>
<desc>Created with Snap</desc>
<path class="st0" d="M10,164c0,0,60-90,120,0 M130,164c0,0,60,90,120,0 M250,164c0,0,60-90,120,0 M370,164c0,0,60,90,120,0"/>
<desc>Created with Snap</desc>
<path class="st0" d="M10,170c0,0,60-90,120,0 M130,170c0,0,60,90,120,0 M250,170c0,0,60-90,120,0 M370,170c0,0,60,90,120,0"/>
<desc>Created with Snap</desc>
<path class="st0" d="M10,176c0,0,60-90,120,0 M130,176c0,0,60,90,120,0 M250,176c0,0,60-90,120,0 M370,176c0,0,60,90,120,0"/>
<desc>Created with Snap</desc>
<path class="st0" d="M10,182c0,0,60-90,120,0 M130,182c0,0,60,90,120,0 M250,182c0,0,60-90,120,0 M370,182c0,0,60,90,120,0"/>
<desc>Created with Snap</desc>
<path class="st0" d="M10,188c0,0,60-90,120,0 M130,188c0,0,60,90,120,0 M250,188c0,0,60-90,120,0 M370,188c0,0,60,90,120,0"/>
<desc>Created with Snap</desc>
<path class="st0" d="M10,194c0,0,60-90,120,0 M130,194c0,0,60,90,120,0 M250,194c0,0,60-90,120,0 M370,194c0,0,60,90,120,0"/>
<desc>Created with Snap</desc>
<path class="st0" d="M10,200c0,0,60-90,120,0 M130,200c0,0,60,90,120,0 M250,200c0,0,60-90,120,0 M370,200c0,0,60,90,120,0"/>
<desc>Created with Snap</desc>
<path class="st0" d="M10,206c0,0,60-90,120,0 M130,206c0,0,60,90,120,0 M250,206c0,0,60-90,120,0 M370,206c0,0,60,90,120,0"/>
<desc>Created with Snap</desc>
<path class="st0" d="M10,212c0,0,60-90,120,0 M130,212c0,0,60,90,120,0 M250,212c0,0,60-90,120,0 M370,212c0,0,60,90,120,0"/>
<desc>Created with Snap</desc>
<path class="st0" d="M10,218c0,0,60-90,120,0 M130,218c0,0,60,90,120,0 M250,218c0,0,60-90,120,0 M370,218c0,0,60,90,120,0"/>
<desc>Created with Snap</desc>
<path class="st0" d="M10,224c0,0,60-90,120,0 M130,224c0,0,60,90,120,0 M250,224c0,0,60-90,120,0 M370,224c0,0,60,90,120,0"/>
<desc>Created with Snap</desc>
<path class="st0" d="M10,230c0,0,60-90,120,0 M130,230c0,0,60,90,120,0 M250,230c0,0,60-90,120,0 M370,230c0,0,60,90,120,0"/>
<desc>Created with Snap</desc>
<path class="st0" d="M10,236c0,0,60-90,120,0 M130,236c0,0,60,90,120,0 M250,236c0,0,60-90,120,0 M370,236c0,0,60,90,120,0"/>
<desc>Created with Snap</desc>
<path class="st0" d="M10,242c0,0,60-90,120,0 M130,242c0,0,60,90,120,0 M250,242c0,0,60-90,120,0 M370,242c0,0,60,90,120,0"/>
<desc>Created with Snap</desc>
<path class="st0" d="M10,248c0,0,60-90,120,0 M130,248c0,0,60,90,120,0 M250,248c0,0,60-90,120,0 M370,248c0,0,60,90,120,0"/>
<desc>Created with Snap</desc>
<path class="st0" d="M10,254c0,0,60-90,120,0 M130,254c0,0,60,90,120,0 M250,254c0,0,60-90,120,0 M370,254c0,0,60,90,120,0"/>
<desc>Created with Snap</desc>
<path class="st0" d="M10,260c0,0,60-90,120,0 M130,260c0,0,60,90,120,0 M250,260c0,0,60-90,120,0 M370,260c0,0,60,90,120,0"/>
<desc>Created with Snap</desc>
<path class="st0" d="M10,266c0,0,60-90,120,0 M130,266c0,0,60,90,120,0 M250,266c0,0,60-90,120,0 M370,266c0,0,60,90,120,0"/>
<desc>Created with Snap</desc>
<path class="st0" d="M10,272c0,0,60-90,120,0 M130,272c0,0,60,90,120,0 M250,272c0,0,60-90,120,0 M370,272c0,0,60,90,120,0"/>
<desc>Created with Snap</desc>
<path class="st0" d="M10,278c0,0,60-90,120,0 M130,278c0,0,60,90,120,0 M250,278c0,0,60-90,120,0 M370,278c0,0,60,90,120,0"/>
<desc>Created with Snap</desc>
<path class="st0" d="M10,284c0,0,60-90,120,0 M130,284c0,0,60,90,120,0 M250,284c0,0,60-90,120,0 M370,284c0,0,60,90,120,0"/>
<desc>Created with Snap</desc>
<path class="st0" d="M10,290c0,0,60-90,120,0 M130,290c0,0,60,90,120,0 M250,290c0,0,60-90,120,0 M370,290c0,0,60,90,120,0"/>
<desc>Created with Snap</desc>
<path class="st0" d="M10,296c0,0,60-90,120,0 M130,296c0,0,60,90,120,0 M250,296c0,0,60-90,120,0 M370,296c0,0,60,90,120,0"/>
<desc>Created with Snap</desc>
<path class="st0" d="M10,302c0,0,60-90,120,0 M130,302c0,0,60,90,120,0 M250,302c0,0,60-90,120,0 M370,302c0,0,60,90,120,0"/>
<desc>Created with Snap</desc>
<path class="st0" d="M10,308c0,0,60-90,120,0 M130,308c0,0,60,90,120,0 M250,308c0,0,60-90,120,0 M370,308c0,0,60,90,120,0"/>
<desc>Created with Snap</desc>
<path class="st0" d="M10,314c0,0,60-90,120,0 M130,314c0,0,60,90,120,0 M250,314c0,0,60-90,120,0 M370,314c0,0,60,90,120,0"/>
<desc>Created with Snap</desc>
<path class="st0" d="M10,320c0,0,60-90,120,0 M130,320c0,0,60,90,120,0 M250,320c0,0,60-90,120,0 M370,320c0,0,60,90,120,0"/>
<desc>Created with Snap</desc>
<path class="st0" d="M10,326c0,0,60-90,120,0 M130,326c0,0,60,90,120,0 M250,326c0,0,60-90,120,0 M370,326c0,0,60,90,120,0"/>
<desc>Created with Snap</desc>
<path class="st0" d="M10,332c0,0,60-90,120,0 M130,332c0,0,60,90,120,0 M250,332c0,0,60-90,120,0 M370,332c0,0,60,90,120,0"/>
<desc>Created with Snap</desc>
<path class="st0" d="M10,338c0,0,60-90,120,0 M130,338c0,0,60,90,120,0 M250,338c0,0,60-90,120,0 M370,338c0,0,60,90,120,0"/>
<desc>Created with Snap</desc>
<path class="st0" d="M10,344c0,0,60-90,120,0 M130,344c0,0,60,90,120,0 M250,344c0,0,60-90,120,0 M370,344c0,0,60,90,120,0"/>
<desc>Created with Snap</desc>
<path class="st0" d="M10,350c0,0,60-90,120,0 M130,350c0,0,60,90,120,0 M250,350c0,0,60-90,120,0 M370,350c0,0,60,90,120,0"/>
<desc>Created with Snap</desc>
<path class="st0" d="M10,356c0,0,60-90,120,0 M130,356c0,0,60,90,120,0 M250,356c0,0,60-90,120,0 M370,356c0,0,60,90,120,0"/>
<desc>Created with Snap</desc>
<path class="st0" d="M10,362c0,0,60-90,120,0 M130,362c0,0,60,90,120,0 M250,362c0,0,60-90,120,0 M370,362c0,0,60,90,120,0"/>
<desc>Created with Snap</desc>
<path class="st0" d="M10,368c0,0,60-90,120,0 M130,368c0,0,60,90,120,0 M250,368c0,0,60-90,120,0 M370,368c0,0,60,90,120,0"/>
<desc>Created with Snap</desc>
<path class="st0" d="M10,374c0,0,60-90,120,0 M130,374c0,0,60,90,120,0 M250,374c0,0,60-90,120,0 M370,374c0,0,60,90,120,0"/>
<desc>Created with Snap</desc>
<path class="st0" d="M10,380c0,0,60-90,120,0 M130,380c0,0,60,90,120,0 M250,380c0,0,60-90,120,0 M370,380c0,0,60,90,120,0"/>
<desc>Created with Snap</desc>
<path class="st0" d="M10,386c0,0,60-90,120,0 M130,386c0,0,60,90,120,0 M250,386c0,0,60-90,120,0 M370,386c0,0,60,90,120,0"/>
<desc>Created with Snap</desc>
<path class="st0" d="M10,392c0,0,60-90,120,0 M130,392c0,0,60,90,120,0 M250,392c0,0,60-90,120,0 M370,392c0,0,60,90,120,0"/>
<desc>Created with Snap</desc>
<path class="st0" d="M10,398c0,0,60-90,120,0 M130,398c0,0,60,90,120,0 M250,398c0,0,60-90,120,0 M370,398c0,0,60,90,120,0"/>
<desc>Created with Snap</desc>
<path class="st0" d="M10,404c0,0,60-90,120,0 M130,404c0,0,60,90,120,0 M250,404c0,0,60-90,120,0 M370,404c0,0,60,90,120,0"/>
<desc>Created with Snap</desc>
<path class="st0" d="M10,410c0,0,60-90,120,0 M130,410c0,0,60,90,120,0 M250,410c0,0,60-90,120,0 M370,410c0,0,60,90,120,0"/>
<desc>Created with Snap</desc>
<path class="st0" d="M10,416c0,0,60-90,120,0 M130,416c0,0,60,90,120,0 M250,416c0,0,60-90,120,0 M370,416c0,0,60,90,120,0"/>
<desc>Created with Snap</desc>
<path class="st0" d="M10,422c0,0,60-90,120,0 M130,422c0,0,60,90,120,0 M250,422c0,0,60-90,120,0 M370,422c0,0,60,90,120,0"/>
<desc>Created with Snap</desc>
<path class="st0" d="M10,428c0,0,60-90,120,0 M130,428c0,0,60,90,120,0 M250,428c0,0,60-90,120,0 M370,428c0,0,60,90,120,0"/>
<desc>Created with Snap</desc>
<path class="st0" d="M10,434c0,0,60-90,120,0 M130,434c0,0,60,90,120,0 M250,434c0,0,60-90,120,0 M370,434c0,0,60,90,120,0"/>
<desc>Created with Snap</desc>
<path class="st0" d="M10,440c0,0,60-90,120,0 M130,440c0,0,60,90,120,0 M250,440c0,0,60-90,120,0 M370,440c0,0,60,90,120,0"/>
<desc>Created with Snap</desc>
<path class="st0" d="M10,446c0,0,60-90,120,0 M130,446c0,0,60,90,120,0 M250,446c0,0,60-90,120,0 M370,446c0,0,60,90,120,0"/>
<desc>Created with Snap</desc>
<path class="st0" d="M10,452c0,0,60-90,120,0 M130,452c0,0,60,90,120,0 M250,452c0,0,60-90,120,0 M370,452c0,0,60,90,120,0"/>
</svg>
